<svg width="528" height="530" viewBox="0 0 528 530" fill="none" xmlns="http://www.w3.org/2000/svg">
<path d="M449.946 77.4695C347.007 -25.8413 180.2 -25.8204 77.2364 77.5161C-25.7276 180.853 -25.7484 348.263 77.1899 451.574C180.128 554.885 346.935 554.864 449.899 451.527C552.863 348.191 552.811 180.708 449.946 77.4695ZM94.2057 434.497C38.1036 378.191 12.8447 312.146 37.8978 287.002C62.9509 261.858 128.758 287.209 184.86 343.514C240.962 399.819 266.221 465.864 241.168 491.008C216.115 516.152 150.308 490.802 94.2057 434.497ZM201.731 326.582C119.786 244.34 105.104 125.687 168.968 61.5919C232.831 -2.5029 350.912 12.2324 432.93 94.5469C514.947 176.861 529.557 295.442 465.693 359.537C401.83 423.632 283.604 408.896 201.659 326.654L201.731 326.582Z" fill="#FFFFFF"/>
</svg>
