<svg width="910" height="71" viewBox="0 0 910 71" fill="none" xmlns="http://www.w3.org/2000/svg">
<g clip-path="url(#clip0_456_19644)">
<path d="M1.81993 69.6656V66.4043C7.19627 66.4043 10.7516 65.1585 10.7516 58.5492V9.10071C7.68188 6.41893 3.64095 6.13345 -0.00976562 6.32377V2.3011H18.53L62.1391 52.7964V13.132C62.1391 6.52274 58.5837 5.27701 53.2074 5.27701V2.01562H76.8373V5.27701C71.461 5.27701 67.9056 6.52274 67.9056 13.132V70.7211H64.8359L16.5182 15.5197V58.5406C16.5182 65.1499 20.0735 66.3956 25.4498 66.3956V69.657H1.81993V69.6656Z" fill="#000000"/>
<path d="M95.7871 35.8375C95.7871 16.0009 112.02 0.957031 132.286 0.957031C152.551 0.957031 168.307 15.5251 168.307 35.8375C168.307 56.1498 151.979 70.7179 131.904 70.7179C111.829 70.7179 95.7871 56.1498 95.7871 35.8375ZM157.736 36.2181C157.736 18.2069 146.498 5.55066 131.895 5.55066C117.293 5.55066 106.349 18.008 106.349 35.4482C106.349 53.7535 117.587 66.2108 132.095 66.2108C146.602 66.2108 157.745 53.8486 157.745 36.2181H157.736Z" fill="#000000"/>
<path d="M214.118 2.01562V5.27701C208.256 5.27701 204.319 6.52274 204.319 13.132V43.6957C204.319 56.2481 212.679 63.3418 223.822 63.3418C235.632 63.3418 245.145 56.4471 245.145 41.6886V13.132C245.145 6.52274 241.208 5.27701 235.346 5.27701V2.01562H259.843V5.27701C254.467 5.27701 250.912 6.52274 250.912 13.132V41.308C250.912 60.4697 238.329 70.5307 222.668 70.5307C207.008 70.5307 195.102 61.8106 195.102 44.5607V13.132C195.102 6.52274 191.546 5.27701 186.17 5.27701V2.01562H214.118Z" fill="#000000"/>
<path d="M443.916 2.01562L444.974 17.345H441.705C440.17 9.00555 435.175 6.90338 426.243 6.90338H410.973V32.3889H418.942C427.301 32.3889 429.122 31.619 430.657 23.8591L434.022 23.9543C433.64 27.3109 433.449 30.7539 433.449 34.3959C433.449 38.2283 433.64 41.8703 434.022 45.4172L430.657 45.6075C429.122 37.7525 427.292 36.9826 418.942 36.9826H410.973V58.0648C410.973 63.3332 413.852 64.7692 425.09 64.7692C438.149 64.7692 441.132 61.5079 444.202 53.6528L447.566 54.8034L442.572 69.657H392.814V66.3956C398.191 66.3956 401.746 65.1499 401.746 58.5406V13.132C401.746 6.52274 398.191 5.27701 392.814 5.27701V2.01562H443.916Z" fill="#000000"/>
<path d="M560.266 69.6657V66.4043C563.535 66.4043 567.177 65.444 569.683 59.3106L591.197 5.55388L598.212 0L621.651 59.3192C624.053 65.4527 627.513 66.4129 630.488 66.4129V69.6743H604.456V66.4129C611.176 66.4129 614.064 65.4527 611.757 59.3192L606.381 45.3307H581.407L576.031 59.3192C573.628 65.4527 576.03 66.4129 581.892 66.4129V69.6743H560.283L560.266 69.6657ZM604.638 40.8236L593.876 12.9417L583.115 40.8236H604.629H604.638Z" fill="#000000"/>
<path d="M471.681 69.6656V66.4043C477.058 66.4043 480.613 65.1585 480.613 58.5492V9.10071C477.543 6.41893 473.502 6.13345 469.852 6.32377V2.3011H488.391L532 52.7964V13.132C532 6.52274 528.445 5.27701 523.069 5.27701V2.01562H546.699V5.27701C541.322 5.27701 537.767 6.52274 537.767 13.132V70.7211H534.697L486.379 15.5283V58.5492C486.379 65.1585 489.935 66.4043 495.311 66.4043V69.6656H471.681Z" fill="#000000"/>
<path d="M362.322 65.4845C360.9 64.3512 360.198 62.4393 360.198 59.7576V12.2122C360.198 9.52179 360.848 8.13765 362.166 7.00438C363.476 5.87112 365.73 5.2223 368.921 5.2223V2.14258H347.607L324.905 53.2694L302.758 2.14258H279.318V6.26041C287.99 6.00953 289.984 9.0979 289.984 9.0979V59.7662C289.984 61.4272 289.308 63.5813 287.964 64.7145C286.62 65.8478 284.313 66.4101 281.053 66.4101V69.8359H305.515V67.1887C295.612 67.1887 295.768 59.7576 295.768 59.7576V9.85918L322.112 70.6317H323.058L351.032 8.00789V59.7576C351.032 62.448 350.321 64.3512 348.907 65.4845C347.485 66.6177 345.04 67.18 341.571 67.18V69.8272H369.65V67.18C366.172 67.18 363.727 66.6177 362.314 65.4845H362.322Z" fill="#000000"/>
</g>
<rect x="675.065" y="1.44496" width="233.831" height="67.8308" rx="18.1227" stroke="#000000" stroke-width="1.16921"/>
<path d="M698.387 46.3604V24.3042H707.693C711.646 24.2427 714.614 26.8882 714.553 30.2566C714.553 32.9482 713.076 35.04 711.031 35.7476C713.43 35.7476 714.245 36.5781 714.245 38.793V46.3604H711.415V39.3313C711.415 37.8547 710.938 37.3779 709.462 37.3779H701.218V46.3604H698.387ZM701.218 34.8093H707.278C709.862 34.8093 711.723 33.0713 711.723 30.6873C711.723 28.2725 710.092 26.8882 707.278 26.8882H701.218V34.8093ZM722.917 46.3604V24.3042H738.759V26.8882H725.747V33.7327H736.867V36.3013H725.747V43.7917H739.082V46.3604H722.917ZM744.785 39.3313H747.615C747.615 42.3921 749.999 44.0994 753.46 44.0994H753.783C756.813 44.0994 758.551 42.5459 758.551 40.531C758.551 38.6699 757.367 37.5779 754.891 37.0703L751.353 36.3474C747.8 35.6091 745.893 33.625 745.893 30.3027C745.831 26.8574 749.046 23.9351 753.66 23.9966C758.474 23.9966 761.566 26.6729 761.72 30.8718H758.89C758.736 28.2571 756.613 26.5652 753.814 26.5652H753.491C750.676 26.5652 748.723 28.1648 748.723 30.2566C748.723 31.9946 749.907 33.0867 751.953 33.502L755.475 34.1941C759.428 34.9785 761.397 37.0549 761.397 40.408C761.397 44.2378 758.213 46.668 753.399 46.668C748.138 46.668 744.878 44.084 744.785 39.3313ZM769.299 46.3604V24.3042H785.142V26.8882H772.129V33.7327H783.25V36.3013H772.129V43.7917H785.465V46.3604H769.299ZM808.441 46.3604L806.149 40.5464H795.382L793.09 46.3604H790.199L799.027 24.3042H802.642L811.409 46.3604H808.441ZM796.397 37.9778H805.134L800.766 26.9189L796.397 37.9778ZM817.743 46.3604V24.3042H827.048C831.001 24.2427 833.97 26.8882 833.908 30.2566C833.908 32.9482 832.432 35.04 830.386 35.7476C832.785 35.7476 833.601 36.5781 833.601 38.793V46.3604H830.771V39.3313C830.771 37.8547 830.294 37.3779 828.817 37.3779H820.573V46.3604H817.743ZM820.573 34.8093H826.633C829.217 34.8093 831.078 33.0713 831.078 30.6873C831.078 28.2725 829.448 26.8882 826.633 26.8882H820.573V34.8093ZM840.934 35.3323C840.934 33.179 841.349 31.241 842.18 29.5183C843.026 27.7957 844.21 26.4421 845.764 25.4731C847.317 24.4888 849.148 23.9966 851.224 23.9966C855.946 23.9351 859.73 26.9343 859.945 31.1948H857.115C856.776 28.5032 854.654 26.5652 851.393 26.5652H851.07C846.487 26.5037 843.733 30.4565 843.78 35.3323C843.733 40.208 846.487 44.1609 851.07 44.0994H851.393C854.654 44.0994 856.776 42.1614 857.115 39.4851H859.945C859.73 43.7456 855.946 46.7141 851.224 46.668C849.148 46.668 847.317 46.1758 845.764 45.2068C844.21 44.2224 843.026 42.8689 842.18 41.1462C841.349 39.4236 840.934 37.4856 840.934 35.3323ZM867.478 46.3604V24.3042H870.309V34.0403H881.921V24.3042H884.751V46.3604H881.921V36.6089H870.309V46.3604H867.478Z" fill="#000000"/>
<defs>
<clipPath id="clip0_456_19644">
<rect width="630.481" height="70.7211" fill="white"/>
</clipPath>
</defs>
</svg>
