<svg width="1207" height="150" viewBox="0 0 1207 150" fill="none" xmlns="http://www.w3.org/2000/svg">
<g clip-path="url(#clip0_456_19753)">
<g clip-path="url(#clip1_456_19753)">
<path d="M236.12 128.328V123.368C244.26 123.368 249.643 121.473 249.643 111.42V36.2099C244.995 32.131 238.877 31.6968 233.35 31.9862V25.8678H261.42L327.446 102.67V42.3415C327.446 32.2889 322.063 30.3941 313.923 30.3941V25.4336H349.7V30.3941C341.56 30.3941 336.177 32.2889 336.177 42.3415V129.934H331.529L258.374 45.9731V111.407C258.374 121.46 263.757 123.355 271.897 123.355V128.315H236.12V128.328Z" fill="#000000"/>
<path d="M378.391 76.8788C378.391 46.7077 402.968 23.8262 433.651 23.8262C464.334 23.8262 488.189 45.9841 488.189 76.8788C488.189 107.774 463.467 129.931 433.073 129.931C402.679 129.931 378.391 107.774 378.391 76.8788ZM472.185 77.4577C472.185 50.063 455.17 30.813 433.06 30.813C410.951 30.813 394.382 49.7604 394.382 76.2867C394.382 104.129 411.397 123.076 433.362 123.076C455.327 123.076 472.198 104.274 472.198 77.4577H472.185Z" fill="#000000"/>
<path d="M557.548 25.4336V30.3941C548.672 30.3941 542.712 32.2889 542.712 42.3415V88.8283C542.712 107.92 555.368 118.71 572.239 118.71C590.121 118.71 604.523 108.223 604.523 85.7757V42.3415C604.523 32.2889 598.563 30.3941 589.688 30.3941V25.4336H626.777V30.3941C618.637 30.3941 613.254 32.2889 613.254 42.3415V85.1967C613.254 114.341 594.204 129.644 570.493 129.644C546.782 129.644 528.755 116.381 528.755 90.1441V42.3415C528.755 32.2889 523.372 30.3941 515.232 30.3941V25.4336H557.548Z" fill="#000000"/>
<path d="M905.471 25.4336L907.073 48.7494H902.123C899.8 36.0652 892.237 32.8678 878.714 32.8678H855.594V71.631H867.66C880.316 71.631 883.073 70.4599 885.397 58.6573L890.491 58.802C889.913 63.9073 889.625 69.1441 889.625 74.6836C889.625 80.5125 889.913 86.052 890.491 91.4468L885.397 91.7362C883.073 79.7889 880.303 78.6178 867.66 78.6178H855.594V110.684C855.594 118.697 859.953 120.881 876.968 120.881C896.741 120.881 901.257 115.92 905.905 103.973L910.999 105.723L903.436 128.315H828.102V123.355C836.242 123.355 841.625 121.46 841.625 111.407V42.3415C841.625 32.2889 836.242 30.3941 828.102 30.3941V25.4336H905.471Z" fill="#000000"/>
<path d="M1081.63 128.328V123.367C1086.58 123.367 1092.1 121.907 1095.89 112.578L1128.47 30.8146L1139.09 22.3672L1174.58 112.591C1178.21 121.92 1183.45 123.38 1187.95 123.38V128.341H1148.54V123.38C1158.72 123.38 1163.09 121.92 1159.6 112.591L1151.46 91.3146H1113.64L1105.5 112.591C1101.87 121.92 1105.5 123.38 1114.38 123.38V128.341H1081.66L1081.63 128.328ZM1148.82 84.4593L1132.52 42.0514L1116.23 84.4593H1148.8H1148.82Z" fill="#000000"/>
<path d="M947.51 128.328V123.368C955.651 123.368 961.033 121.473 961.033 111.42V36.2099C956.386 32.131 950.268 31.6968 944.74 31.9862V25.8678H972.81L1038.84 102.67V42.3415C1038.84 32.2889 1033.45 30.3941 1025.31 30.3941V25.4336H1061.09V30.3941C1052.95 30.3941 1047.57 32.2889 1047.57 42.3415V129.934H1042.92L969.764 45.9862V111.42C969.764 121.473 975.147 123.368 983.287 123.368V128.328H947.51Z" fill="#000000"/>
<path d="M781.937 121.971C779.784 120.247 778.721 117.339 778.721 113.26V40.9447C778.721 36.8526 779.705 34.7473 781.701 33.0236C783.684 31.3 787.097 30.3131 791.929 30.3131V25.6289H759.657L725.285 103.392L691.754 25.6289H656.266V31.8921C669.395 31.5105 672.414 36.2079 672.414 36.2079V113.274C672.414 115.8 671.39 119.076 669.355 120.8C667.32 122.524 663.828 123.379 658.891 123.379V128.589H695.929V124.563C680.935 124.563 681.172 113.26 681.172 113.26V37.3657L721.058 129.8H722.489L764.843 34.55V113.26C764.843 117.353 763.767 120.247 761.627 121.971C759.474 123.695 755.771 124.55 750.519 124.55V128.576H793.032V124.55C787.767 124.55 784.064 123.695 781.924 121.971H781.937Z" fill="#000000"/>
</g>
<path d="M129.228 21.9695C99.9963 -7.32681 52.6267 -7.32088 23.3872 21.9828C-5.85231 51.2864 -5.85822 98.7598 23.374 128.056C52.6062 157.352 99.9757 157.347 129.215 128.043C158.455 98.7393 158.44 51.2453 129.228 21.9695ZM28.2061 123.213C12.2744 107.247 5.10137 88.5179 12.2159 81.3877C19.3304 74.2576 38.0183 81.4463 53.9501 97.413C69.8818 113.38 77.0548 132.109 69.9403 139.239C62.8258 146.369 44.1379 139.18 28.2061 123.213ZM58.7411 92.6115C35.4704 69.2898 31.301 35.6427 49.4369 17.4671C67.5728 -0.708622 101.105 3.46995 124.396 26.8122C147.688 50.1545 151.836 83.781 133.701 101.957C115.565 120.132 81.9912 115.954 58.7205 92.6321L58.7411 92.6115Z" fill="#000000"/>
</g>
<defs>
<clipPath id="clip0_456_19753">
<rect width="1206.7" height="150" fill="white"/>
</clipPath>
<clipPath id="clip1_456_19753">
<rect width="954.578" height="107.566" fill="white" transform="translate(233.365 22.3672)"/>
</clipPath>
</defs>
</svg>
